<svg width="256" height="256" viewBox="0 0 256 256" fill="none" xmlns="http://www.w3.org/2000/svg">
<g clip-path="url(#clip0_1_9)">
<path d="M256 128C256 57.3075 198.692 0 128 0C57.3075 0 0 57.3075 0 128C0 198.692 57.3075 256 128 256C198.692 256 256 198.692 256 128Z" fill="black"/>
<path d="M124.28 100.56C124.344 100.465 124.388 100.359 124.408 100.247C124.429 100.134 124.427 100.019 124.401 99.908C124.374 99.7972 124.325 99.6931 124.256 99.6022C124.187 99.5114 124.1 99.4357 124 99.38L89.3 79.34C89.1374 79.2425 89.0059 79.1007 88.9207 78.9312C88.8356 78.7618 88.8005 78.5716 88.8193 78.3829C88.8382 78.1942 88.9103 78.0148 89.0273 77.8656C89.1443 77.7163 89.3013 77.6034 89.48 77.54L103.68 72.8C103.971 72.7001 104.226 72.5157 104.413 72.2703C104.599 72.0249 104.707 71.7295 104.725 71.422C104.742 71.1174 104.667 70.8147 104.509 70.5537C104.351 70.2928 104.118 70.0858 103.84 69.96L48.22 43.88C48.0918 43.8211 47.953 43.789 47.812 43.7855C47.671 43.7819 47.5308 43.8071 47.3998 43.8595C47.2689 43.9119 47.1499 43.9904 47.0502 44.0902C46.9506 44.19 46.8722 44.309 46.82 44.44L46.58 45.04C46.4951 45.243 46.4826 45.4691 46.5445 45.6802C46.6064 45.8914 46.739 46.0749 46.92 46.2L79.9 68.24C80.0524 68.3396 80.1732 68.4806 80.2486 68.6463C80.3239 68.812 80.3505 68.9958 80.3253 69.1761C80.3002 69.3564 80.2243 69.5258 80.1065 69.6646C79.9887 69.8034 79.8338 69.9059 79.66 69.96L63.36 75.38C63.1051 75.4713 62.8839 75.6376 62.7254 75.857C62.5669 76.0765 62.4786 76.3388 62.4721 76.6094C62.4656 76.88 62.5412 77.1463 62.689 77.3731C62.8368 77.5999 63.0498 77.7766 63.3 77.88L122.14 101.68C122.45 101.805 122.794 101.82 123.111 101.722C123.429 101.623 123.701 101.417 123.88 101.14L124.28 100.56ZM139.2 100.62L139.56 101.14C139.723 101.391 139.97 101.577 140.259 101.664C140.547 101.752 140.859 101.736 141.14 101.62L194.28 80.2C194.453 80.1336 194.608 80.028 194.733 79.8914C194.859 79.7549 194.95 79.5912 195.002 79.4132C195.053 79.2351 195.062 79.0476 195.029 78.8654C194.995 78.6832 194.92 78.5112 194.809 78.363C194.661 78.1646 194.455 78.0169 194.22 77.94L179.52 73.04C179.365 72.9882 179.227 72.8942 179.122 72.7684C179.017 72.6426 178.95 72.4901 178.927 72.328C178.904 72.166 178.927 72.0007 178.993 71.8509C179.059 71.7011 179.165 71.5727 179.3 71.48L209.1 51.62C209.262 51.5077 209.381 51.3429 209.435 51.1534C209.49 50.9639 209.477 50.7614 209.4 50.58L209.18 50.04C209.134 49.9214 209.064 49.8134 208.975 49.7225C208.885 49.6316 208.779 49.5597 208.661 49.5112C208.543 49.4626 208.417 49.4383 208.29 49.4398C208.162 49.4414 208.037 49.4686 207.92 49.52L157.68 73C157.423 73.1128 157.206 73.3014 157.059 73.5406C156.912 73.7797 156.841 74.0581 156.856 74.3385C156.872 74.6189 156.972 74.888 157.144 75.1098C157.316 75.3316 157.552 75.4957 157.82 75.58L170.64 79.86C170.806 79.9141 170.953 80.0155 171.063 80.1519C171.172 80.2882 171.24 80.4536 171.257 80.6276C171.274 80.8017 171.24 80.977 171.158 81.1319C171.077 81.2869 170.953 81.4148 170.8 81.5L139.46 99.54C139.367 99.5895 139.286 99.658 139.222 99.7408C139.158 99.8237 139.111 99.9191 139.086 100.021C139.062 100.123 139.06 100.229 139.079 100.333C139.099 100.436 139.14 100.534 139.2 100.62ZM131.64 197.68L150.02 221.8C150.14 221.96 150.287 222.093 150.46 222.2C153.993 224.453 156.533 224.52 158.08 222.4C158.287 222.115 158.431 221.79 158.504 221.445C158.576 221.1 158.575 220.744 158.5 220.4C154.7 203.307 151.76 188.52 149.68 176.04C149.56 175.347 149.44 174.64 149.32 173.92C146.787 159.693 142.607 139.107 136.78 112.16C136.514 110.912 135.806 109.802 134.787 109.034C133.764 108.262 132.499 107.881 131.22 107.96C127.593 108.173 125.473 110.073 124.86 113.66C124.527 115.687 123.087 122.793 120.54 134.98C114.879 162.048 109.119 189.094 103.26 216.12C102.567 219.307 102.86 221.56 104.14 222.88C106.72 225.56 111.72 222.18 112.84 220.22C117.853 211.433 123.54 203.88 129.9 197.56C130.018 197.444 130.158 197.355 130.313 197.297C130.467 197.24 130.632 197.215 130.797 197.226C130.962 197.237 131.122 197.284 131.268 197.362C131.413 197.44 131.54 197.549 131.64 197.68ZM130.96 159.28C130.2 159.28 129.273 158.78 128.18 157.78C124.82 154.68 123.72 153.04 124.66 148.3C125.953 141.753 127.907 133.22 130.52 122.7C130.54 122.607 130.571 122.517 130.612 122.431C130.642 122.365 130.686 122.307 130.74 122.26C130.821 122.219 130.909 122.192 131 122.18C131.067 122.18 131.153 122.207 131.26 122.26C131.31 122.291 131.356 122.345 131.399 122.422C131.441 122.5 131.475 122.593 131.5 122.7C134.087 133.233 136.02 141.773 137.3 148.32C138.22 153.06 137.12 154.7 133.74 157.78C132.647 158.793 131.72 159.293 130.96 159.28ZM138.66 160.7C138.739 160.644 138.831 160.608 138.927 160.595C139.023 160.582 139.121 160.593 139.212 160.626C139.301 160.659 139.379 160.715 139.44 160.787C139.501 160.86 139.543 160.947 139.56 161.04L141.96 172.62C142.064 173.149 141.979 173.7 141.72 174.18C138.987 179.073 135.673 183.22 131.78 186.62C131.604 186.772 131.386 186.866 131.154 186.888C130.923 186.91 130.69 186.86 130.489 186.744C130.352 186.669 130.233 186.565 130.14 186.44L121.6 175.24C120.929 174.355 120.458 173.336 120.22 172.252C119.982 171.167 119.982 170.044 120.22 168.96L121.84 161.52C121.86 161.417 121.906 161.32 121.973 161.239C122.041 161.158 122.128 161.096 122.226 161.058C122.326 161.019 122.434 161.005 122.54 161.015C122.647 161.026 122.75 161.062 122.84 161.12L130.54 166.28C130.666 166.362 130.813 166.404 130.963 166.401C131.113 166.397 131.259 166.348 131.38 166.26L138.66 160.7ZM149.08 206.4C149.122 206.596 149.096 206.8 149.007 206.979C148.918 207.158 148.77 207.301 148.589 207.386C148.407 207.47 148.202 207.489 148.008 207.441C147.813 207.393 147.641 207.279 147.52 207.12L136.44 192.56C136.252 192.313 136.145 192.013 136.134 191.703C136.123 191.392 136.209 191.083 136.38 190.82L142.06 182.34C142.186 182.15 142.366 182.001 142.577 181.913C142.787 181.825 143.019 181.8 143.243 181.843C143.467 181.887 143.672 181.995 143.835 182.155C143.998 182.314 144.111 182.517 144.16 182.74L149.08 206.4ZM112.94 205.18L117.54 182.82C117.587 182.611 117.694 182.421 117.848 182.272C118.002 182.123 118.196 182.022 118.406 181.982C118.616 181.942 118.833 181.964 119.031 182.045C119.229 182.126 119.399 182.264 119.52 182.44L124.9 190.44C125.062 190.687 125.145 190.977 125.138 191.27C125.132 191.562 125.035 191.846 124.86 192.08L114.42 205.86C114.303 206.006 114.141 206.11 113.958 206.153C113.776 206.196 113.584 206.177 113.414 206.099C113.244 206.021 113.104 205.888 113.019 205.721C112.933 205.555 112.905 205.364 112.94 205.18ZM64.84 149.52C66.3333 149.813 68.02 149.607 69.9 148.9C82.8333 144.06 95.5 138.9 107.9 133.42C108.093 133.334 108.257 133.194 108.373 133.017C108.49 132.841 108.553 132.634 108.556 132.423C108.56 132.212 108.505 132.004 108.396 131.823C108.287 131.642 108.129 131.495 107.94 131.4C104.287 129.613 100.813 128.493 97.52 128.04C97.2948 128.013 97.0834 127.917 96.9148 127.765C96.7462 127.613 96.6287 127.413 96.5784 127.192C96.528 126.971 96.5472 126.74 96.6335 126.53C96.7197 126.32 96.8687 126.142 97.06 126.02L119.26 111.26C119.483 111.117 119.647 110.897 119.72 110.639C119.793 110.38 119.772 110.104 119.66 109.86L119.42 109.36C119.303 109.111 119.092 108.919 118.833 108.825C118.575 108.731 118.289 108.744 118.04 108.86L78.9 127.32C78.668 127.429 78.4724 127.602 78.3367 127.82C78.201 128.037 78.131 128.289 78.135 128.545C78.139 128.798 78.2175 129.045 78.3606 129.254C78.5038 129.463 78.7053 129.625 78.94 129.72C81.4733 130.787 84.34 131.547 87.54 132C88.3533 132.107 88.8533 132.32 89.04 132.64C89.52 133.453 89.34 134.093 88.5 134.56C83.02 137.6 75.0867 142.333 64.7 148.76C64.6314 148.805 64.5777 148.87 64.5455 148.946C64.5133 149.022 64.5041 149.105 64.519 149.186C64.5339 149.267 64.5722 149.342 64.6293 149.401C64.6864 149.461 64.7596 149.502 64.84 149.52ZM167.9 131.96C167.806 131.903 167.724 131.827 167.662 131.736C167.599 131.646 167.556 131.543 167.536 131.434C167.517 131.326 167.52 131.215 167.547 131.108C167.573 131.001 167.622 130.901 167.69 130.814C167.781 130.699 167.902 130.611 168.04 130.56L174.5 128.42C174.759 128.336 174.987 128.176 175.153 127.959C175.319 127.743 175.415 127.482 175.429 127.21C175.444 126.935 175.377 126.662 175.237 126.425C175.096 126.188 174.888 125.999 174.64 125.88L144.06 111.56C143.804 111.437 143.511 111.421 143.243 111.515C142.972 111.609 142.749 111.804 142.62 112.06L142.36 112.56C142.322 112.645 142.315 112.741 142.34 112.831C142.366 112.923 142.423 113.004 142.5 113.06L160.08 124.82C160.236 124.924 160.359 125.07 160.436 125.24C160.513 125.411 160.54 125.599 160.515 125.785C160.49 125.97 160.414 126.145 160.294 126.289C160.175 126.433 160.018 126.541 159.84 126.6L153.16 128.82C152.864 128.922 152.607 129.112 152.422 129.365C152.237 129.617 152.134 129.92 152.125 130.232C152.116 130.545 152.203 130.853 152.374 131.115C152.544 131.377 152.791 131.581 153.08 131.7L184.66 144.48C184.894 144.573 185.154 144.57 185.386 144.473C185.618 144.376 185.802 144.192 185.9 143.96L186.24 143.1C186.288 142.972 186.291 142.831 186.248 142.701C186.205 142.574 186.117 142.467 186 142.4L167.9 131.96Z" fill="white"/>
</g>
<defs>
<clipPath id="clip0_1_9">
<rect width="256" height="256" fill="white"/>
</clipPath>
</defs>
</svg>
